<svg xmlns="http://www.w3.org/2000/svg" xmlns:xlink="http://www.w3.org/1999/xlink" width="242" height="95" viewBox="0 0 242 95">
  <defs>
    <clipPath id="clip-path">
      <rect id="Rectangle_12" data-name="Rectangle 12" width="64" height="37" fill="#fff"/>
    </clipPath>
    <linearGradient id="linear-gradient" x1="0.779" y1="0.5" x2="0" y2="0.5" gradientUnits="objectBoundingBox">
      <stop offset="0" stop-color="#2e2e2e"/>
      <stop offset="1" stop-color="gray" stop-opacity="0"/>
    </linearGradient>
    <clipPath id="clip-PlayerCard">
      <rect width="242" height="95"/>
    </clipPath>
  </defs>
  <g id="PlayerCard" clip-path="url(#clip-PlayerCard)">
    <rect width="242" height="95" fill="#fff"/>
    <g id="Player_1" data-name="Player 1">
      <g id="Rectangle_205" data-name="Rectangle 205" fill="rgba(41,41,41,0.36)" stroke="rgba(255,255,255,0.39)" stroke-width="1">
        <rect width="242" height="95" rx="2" stroke="none"/>
        <rect x="0.5" y="0.5" width="241" height="94" rx="1.5" fill="none"/>
      </g>
      <path id="Rectangle_207" data-name="Rectangle 207" d="M1,0H239a1,1,0,0,1,1,1V37a0,0,0,0,1,0,0H0a0,0,0,0,1,0,0V1A1,1,0,0,1,1,0Z" transform="translate(1 1)" fill="rgba(41,41,41,0.71)"/>
      <rect id="Rectangle_214" data-name="Rectangle 214" width="240" height="7" transform="translate(1 38)" fill="url(#linear-gradient)"/>
    </g>
  </g>
</svg>
