<svg id="Timeout_Component" data-name="Timeout Component" xmlns="http://www.w3.org/2000/svg" xmlns:xlink="http://www.w3.org/1999/xlink" width="861" height="192" viewBox="0 0 861 192">
  <defs>
    <linearGradient id="linear-gradient" y1="0.5" x2="1" y2="0.5" gradientUnits="objectBoundingBox">
      <stop offset="0" stop-color="#c3c3c3" stop-opacity="0.38"/>
      <stop offset="0.745" stop-color="#1b1b1b" stop-opacity="0.49"/>
      <stop offset="0.827" stop-opacity="0.561"/>
      <stop offset="0.946" stop-opacity="0.22"/>
      <stop offset="1" stop-opacity="0"/>
    </linearGradient>
    <linearGradient id="linear-gradient-2" x1="1" x2="0" xlink:href="#linear-gradient"/>
  </defs>
  <rect id="Rectangle_304" data-name="Rectangle 304" width="430" height="191" transform="translate(430)" fill="url(#linear-gradient)"/>
  <rect id="Rectangle_305" data-name="Rectangle 305" width="430" height="191" fill="url(#linear-gradient-2)"/>
  <line id="Line_2" data-name="Line 2" x2="860" transform="translate(0.5 0.5)" fill="none" stroke="rgba(255,255,255,0.5)" stroke-width="1"/>
  <line id="Line_3" data-name="Line 3" y1="1" x2="859" transform="translate(0.5 190.5)" fill="none" stroke="rgba(255,255,255,0.5)" stroke-width="1"/>
  <rect id="Rectangle_251" data-name="Rectangle 251" width="24" height="4" fill="#fff"/>
  <rect id="Rectangle_252" data-name="Rectangle 252" width="24" height="4" transform="translate(0 188)" fill="#fff"/>
  <rect id="Rectangle_253" data-name="Rectangle 253" width="24" height="4" transform="translate(836 187)" fill="#fff"/>
  <rect id="Rectangle_254" data-name="Rectangle 254" width="24" height="4" transform="translate(837)" fill="#fff"/>
  <path id="Path_17" data-name="Path 17" d="M-369.727,0V-83.32h-12.246v-19.8h45.117v19.8H-349.1V0Zm38.613,0V-103.125h41.25V-83.2h-20.273v20.1h19.453v19.395h-19.453V-20.1h21.621V0ZM-257.7.938q-11.191,0-18.018-6.973t-6.826-19.512V-73.125q0-15,5.947-22.969t19.365-7.969a30.207,30.207,0,0,1,13.037,2.7,20.655,20.655,0,0,1,8.994,8.057q3.281,5.361,3.281,13.506v17.813h-20.508V-77.227q0-4.629-1.172-6.24a4.191,4.191,0,0,0-3.633-1.611q-2.871,0-3.867,2.08a12.943,12.943,0,0,0-1,5.537V-25.84q0,4.277,1.26,6.035a4.166,4.166,0,0,0,3.6,1.758,3.822,3.822,0,0,0,3.721-2.168,12.6,12.6,0,0,0,1.084-5.625V-44.414h20.742V-24.9q0,13.594-6.855,19.717T-257.7.938ZM-224.824,0V-103.125h20.508V-66.27h9.727v-36.855h20.508V0H-194.59V-46.758h-9.727V0Zm59.883,0V-103.125h21.211l9.492,49.395v-49.395h19.922V0h-20.156l-10.312-51.562V0Zm58.828,0V-103.125h19.922V0Zm52.148.938q-11.191,0-18.018-6.973t-6.826-19.512V-73.125q0-15,5.947-22.969t19.365-7.969a30.207,30.207,0,0,1,13.037,2.7,20.655,20.655,0,0,1,8.994,8.057q3.281,5.361,3.281,13.506v17.813H-48.691V-77.227q0-4.629-1.172-6.24A4.191,4.191,0,0,0-53.5-85.078q-2.871,0-3.867,2.08a12.943,12.943,0,0,0-1,5.537V-25.84q0,4.277,1.26,6.035a4.166,4.166,0,0,0,3.6,1.758,3.822,3.822,0,0,0,3.721-2.168,12.6,12.6,0,0,0,1.084-5.625V-44.414h20.742V-24.9q0,13.594-6.855,19.717T-53.965.938ZM-23.906,0l9.961-103.125h34.98L30.82,0H11.309L9.844-16.641H-2.578L-3.867,0ZM-1.113-33.105H8.262L3.75-85.547H2.813ZM37.148,0V-103.125H57.773v85.547H78.984V0Zm75.82,0V-103.125h27.246q8.555,0,13.564,3.809a20.854,20.854,0,0,1,7.178,10.84,57.227,57.227,0,0,1,2.168,16.758A64.95,64.95,0,0,1,161.309-55.4a19.9,19.9,0,0,1-6.475,10.752q-4.658,3.809-13.213,3.809h-8.379V0Zm20.273-59.355h1.172q5.742,0,7.031-3.223t1.289-9.492a25.6,25.6,0,0,0-1.26-9.053q-1.26-3.193-5.947-3.193h-2.285ZM165.059,0l9.961-103.125H210L219.785,0H200.273l-1.465-16.641H186.387L185.1,0Zm22.793-33.105h9.375l-4.512-52.441h-.937ZM249.961.938Q237.07.938,230.977-6.3t-6.094-21.3v-75.527h20.039v74.707a40.408,40.408,0,0,0,.293,4.951,8.607,8.607,0,0,0,1.348,3.9,3.839,3.839,0,0,0,3.4,1.523,3.935,3.935,0,0,0,3.457-1.494,8.219,8.219,0,0,0,1.318-3.9,45.647,45.647,0,0,0,.264-4.98v-74.707h20.039V-27.6q0,14.063-6.094,21.3T249.961.938Zm57.48,0q-14.121,0-20.361-7.031t-6.24-22.383V-38.555H301.23v12.891a11.963,11.963,0,0,0,1.084,5.6,3.921,3.921,0,0,0,3.779,2.021q2.813,0,3.9-1.641t1.084-5.391a28.621,28.621,0,0,0-.937-7.939,17.79,17.79,0,0,0-3.252-6.094,68.171,68.171,0,0,0-6.416-6.768l-9.258-8.789Q280.84-64.453,280.84-77.051q0-13.184,6.123-20.1t17.725-6.914q14.18,0,20.127,7.559t5.947,22.969H309.785v-7.09a4.373,4.373,0,0,0-1.2-3.281,4.457,4.457,0,0,0-3.252-1.172,4.42,4.42,0,0,0-3.6,1.377,5.366,5.366,0,0,0-1.143,3.545,11.186,11.186,0,0,0,1.172,4.688,20.785,20.785,0,0,0,4.629,5.8l11.895,11.426a68.682,68.682,0,0,1,6.563,7.178,31.178,31.178,0,0,1,4.8,8.789,36.036,36.036,0,0,1,1.816,12.217q0,14.531-5.361,22.764T307.441.938ZM338.32,0V-103.125h41.25V-83.2H359.3v20.1H378.75v19.395H359.3V-20.1h21.621V0Z" transform="translate(431 147)" fill="rgba(33,33,33,0.2)" stroke="#c7c7c7" stroke-width="1"/>
</svg>
