<svg width="52" height="48" viewBox="0 0 52 48" fill="none" xmlns="http://www.w3.org/2000/svg">
<g filter="">
<path fill-rule="evenodd" clip-rule="evenodd" d="M27.46 47.5C28.785 47.5 30.009 46.785 30.662 45.627L40.437 28.254L36.905 26.079C34.496 29.523 30.511 31.779 26.005 31.779C21.468 31.779 17.463 29.503 15.065 26.028L11.542 28.204L21.338 45.627C22 46.785 23.214 47.5 24.539 47.5H25.995H27.46ZM21.197 41.266L25.985 33.854L30.772 41.266H21.197ZM18.748 14.255L25.985 10.066L33.221 14.255V22.635L25.985 26.824L18.748 22.635V14.255ZM25.985 13.49L21.709 15.968V20.923L25.985 23.4L30.26 20.923V15.968L25.985 13.49ZM12.716 18.475C12.716 20.59 13.208 22.594 14.081 24.367L10.578 26.522L0.973006 9.471C0.361006 8.384 0.341018 7.054 0.923018 5.9565L2.589 2.7539C3.221 1.5353 4.47602 0.7799 5.84102 0.7799H25.021V5.181C18.136 5.6846 12.716 11.445 12.716 18.475ZM8.92201 2.341L3.63301 11.234L13.118 10.891L8.92201 2.341ZM41.391 26.552L51.026 9.441C51.639 8.354 51.659 7.034 51.077 5.9165L49.41 2.7239C48.778 1.5053 47.524 0.75 46.159 0.75H26.968V5.1511C33.864 5.6446 39.293 11.405 39.293 18.445C39.293 20.58 38.792 22.604 37.898 24.397L41.391 26.552ZM38.641 10.882L42.826 2.3412L48.126 11.224L38.641 10.882Z" fill="white"/>
</g>
<defs>
<filter id="filter0_d_1_34" x="-15.5001" y="-15.25" width="83.0002" height="78.75" filterUnits="userSpaceOnUse" color-interpolation-filters="sRGB">
<feFlood flood-opacity="0" result="BackgroundImageFix"/>
<feColorMatrix in="SourceAlpha" type="matrix" values="0 0 0 0 0 0 0 0 0 0 0 0 0 0 0 0 0 0 127 0" result="hardAlpha"/>
<feOffset/>
<feGaussianBlur stdDeviation="8"/>
<feColorMatrix type="matrix" values="0 0 0 0 0.0588235 0 0 0 0 0.0980392 0 0 0 0 0.137255 0 0 0 0.6 0"/>
<feBlend mode="normal" in2="BackgroundImageFix" result="effect1_dropShadow_1_34"/>
<feBlend mode="normal" in="SourceGraphic" in2="effect1_dropShadow_1_34" result="shape"/>
</filter>
</defs>
</svg>
