<?xml version="1.0" encoding="UTF-8"?>
<svg id="Layer_1" xmlns="http://www.w3.org/2000/svg" version="1.1" viewBox="0 0 9 8">
  <!-- Generator: Adobe Illustrator 29.3.1, SVG Export Plug-In . SVG Version: 2.1.0 Build 151)  -->
  <defs>
    <style>
      .st0 {
        fill: #f4e9a0;
        fill-rule: evenodd;
      }
    </style>
  </defs>
  <path class="st0" d="M6,6.9l1.1,1.1,1.1-1.1-1.1-1.1c.3-.5.5-1.1.5-1.8s-.2-1.3-.5-1.8l1.1-1.1-1.1-1.1-1.1,1.1c-.5-.3-1.1-.5-1.8-.5s-1.3.2-1.8.5L1.4,0,.3,1.1l1.1,1.1c-.3.5-.5,1.1-.5,1.8s.2,1.3.5,1.8l-1.1,1.1,1.1,1.1,1.1-1.1c.5.3,1.1.5,1.8.5s1.3-.2,1.8-.5ZM4.3,6.4c1.3,0,2.4-1.1,2.4-2.4s-1.1-2.4-2.4-2.4S1.9,2.7,1.9,4s1.1,2.4,2.4,2.4Z"/>
</svg>