<svg xmlns="http://www.w3.org/2000/svg" width="917" height="331" viewBox="0 0 917 331">
  <g id="Group_39" data-name="Group 39" transform="translate(0 7)">
    <rect id="Rectangle_47" data-name="Rectangle 47" width="917" height="30" transform="translate(0 -7)" fill="rgba(12,15,26,0.65)"/>
    <rect id="Rectangle_45" data-name="Rectangle 45" width="917" height="331" transform="translate(0 -7)" fill="rgba(16,18,24,0.87)"/>
    <rect id="Rectangle_56" data-name="Rectangle 56" width="96" height="57.6" transform="translate(821 23)" fill="rgba(255,255,255,0.09)"/>
    <rect id="Rectangle_287" data-name="Rectangle 287" width="96" height="57.6" transform="translate(821 138)" fill="rgba(255,255,255,0.09)"/>
    <rect id="Rectangle_293" data-name="Rectangle 293" width="96" height="57.6" transform="translate(821 253.4)" fill="rgba(255,255,255,0.09)"/>
    <rect id="Rectangle_57" data-name="Rectangle 57" width="134" height="57.6" transform="translate(685 23)" fill="rgba(255,255,255,0.09)"/>
    <rect id="Rectangle_286" data-name="Rectangle 286" width="134" height="57.6" transform="translate(685 138)" fill="rgba(255,255,255,0.09)"/>
    <rect id="Rectangle_292" data-name="Rectangle 292" width="134" height="57.6" transform="translate(685 253.4)" fill="rgba(255,255,255,0.09)"/>
    <rect id="Rectangle_58" data-name="Rectangle 58" width="57" height="57.6" transform="translate(626 23)" fill="rgba(255,255,255,0.09)"/>
    <rect id="Rectangle_285" data-name="Rectangle 285" width="57" height="57.6" transform="translate(626 138)" fill="rgba(255,255,255,0.09)"/>
    <rect id="Rectangle_291" data-name="Rectangle 291" width="57" height="57.6" transform="translate(626 253.4)" fill="rgba(255,255,255,0.09)"/>
    <rect id="Rectangle_59" data-name="Rectangle 59" width="159" height="57.6" transform="translate(359 23)" fill="rgba(255,255,255,0.09)"/>
    <rect id="Rectangle_307" data-name="Rectangle 307" width="104" height="57.6" transform="translate(520 23)" fill="rgba(255,255,255,0.09)"/>
    <rect id="Rectangle_284" data-name="Rectangle 284" width="159" height="57.6" transform="translate(359 138)" fill="rgba(255,255,255,0.09)"/>
    <rect id="Rectangle_308" data-name="Rectangle 308" width="104" height="57.6" transform="translate(520 138)" fill="rgba(255,255,255,0.09)"/>
    <rect id="Rectangle_290" data-name="Rectangle 290" width="159" height="57.6" transform="translate(359 253.4)" fill="rgba(255,255,255,0.09)"/>
    <rect id="Rectangle_309" data-name="Rectangle 309" width="104" height="57.6" transform="translate(520 253)" fill="rgba(255,255,255,0.09)"/>
    <rect id="Rectangle_61" data-name="Rectangle 61" width="137" height="57.6" transform="translate(220 23)" fill="rgba(255,255,255,0.09)"/>
    <rect id="Rectangle_283" data-name="Rectangle 283" width="137" height="57.6" transform="translate(220 138)" fill="rgba(255,255,255,0.09)"/>
    <rect id="Rectangle_289" data-name="Rectangle 289" width="137" height="57.6" transform="translate(220 253.4)" fill="rgba(255,255,255,0.09)"/>
    <rect id="Rectangle_62" data-name="Rectangle 62" width="218" height="57.6" transform="translate(0 23)" fill="rgba(255,255,255,0.09)"/>
    <rect id="Rectangle_282" data-name="Rectangle 282" width="218" height="57.6" transform="translate(0 138)" fill="rgba(255,255,255,0.09)"/>
    <rect id="Rectangle_288" data-name="Rectangle 288" width="218" height="57.6" transform="translate(0 253.4)" fill="rgba(255,255,255,0.09)"/>
  </g>
</svg>
